<svg width="12" height="15" viewBox="0 0 12 15" fill="none" xmlns="http://www.w3.org/2000/svg">
<rect width="12" height="15" fill="white"/>
<path d="M5.96994 4.23055L7.69047 6.38064L8.59283 3.76806L10.2001 3.48465L8.82541 7.05027L11.3703 9.92474L9.77141 10.2067L7.9983 8.12644L7.05619 10.6854L5.44469 10.9696L6.8404 7.40028L4.35844 4.5147L5.96994 4.23055Z" fill="#4F53A2"/>
<path d="M0.758523 12V3.27273H2.60369V7.12074H2.71875L5.85938 3.27273H8.07102L4.83239 7.1804L8.10938 12H5.90199L3.51136 8.41193L2.60369 9.51989V12H0.758523Z" fill="black"/>
<path d="M4.42321 4.04375C4.43661 4.06175 4.48169 4.09315 4.51099 4.14039C4.52544 4.16368 4.5269 4.1921 4.5158 4.21261C4.47076 4.29581 4.36501 4.27386 4.29509 4.28056C4.25938 4.28398 4.26078 4.36807 4.26301 4.44258C4.26388 4.47159 4.34172 4.38242 4.39594 4.34837C4.40763 4.34103 4.42294 4.35047 4.42761 4.35947C4.45127 4.40507 4.37827 4.46309 4.33313 4.52854C4.31478 4.55513 4.31046 4.58505 4.31039 4.60312C4.31018 4.65788 4.4094 4.49964 4.46138 4.46126C4.51129 4.42441 4.52229 4.35534 4.56067 4.26966C4.59007 4.204 4.65319 4.18817 4.68019 4.18364C4.69361 4.18139 4.70719 4.18804 4.71186 4.19704C4.73507 4.24177 4.66713 4.30959 4.62638 4.36841C4.58781 4.42408 4.54964 4.47662 4.50463 4.51507C4.43239 4.57677 4.42348 4.65259 4.3782 4.68217C4.33453 4.71069 4.45461 4.57192 4.49299 4.51771C4.53296 4.46124 4.5629 4.40949 4.59004 4.35528C4.622 4.29143 4.66659 4.24245 4.70503 4.19284C4.73587 4.15304 4.78854 4.1431 4.80661 4.13626C4.84846 4.12044 4.74834 4.22405 4.70537 4.26919C4.66606 4.31048 4.63532 4.3414 4.63302 4.355C4.63518 4.35521 4.64412 4.34181 4.65542 4.33044C4.66672 4.31907 4.68012 4.31013 4.721 4.28739" stroke="white" stroke-width="0.5" stroke-linecap="round"/>
<path d="M4.58805 4.58345C4.5652 4.61435 4.5217 4.67689 4.50612 4.69181C4.49396 4.70346 4.48644 4.71759 4.48303 4.72168C4.4709 4.73619 4.51747 4.70275 4.53379 4.69598C4.54948 4.68947 4.55008 4.66485 4.5636 4.65261C4.5779 4.63967 4.58936 4.62419 4.59954 4.60791C4.60904 4.59272 4.61513 4.5754 4.62865 4.56182C4.64778 4.54261 4.66116 4.51847 4.67271 4.50085C4.69085 4.47315 4.71532 4.45887 4.73033 4.4412C4.73573 4.43309 4.73716 4.42357 4.73982 4.40538C4.74383 4.39255 4.75322 4.37242 4.7629 4.34762" stroke="white" stroke-width="0.25" stroke-linecap="round"/>
<path d="M5.10445 4.69324C5.13132 4.61785 5.18032 4.51031 5.18103 4.50488C5.18216 4.49627 5.14128 4.52901 5.09194 4.57699C5.06641 4.60181 5.04126 4.62899 5.01269 4.65624C4.95455 4.71169 4.91745 4.73662 4.91135 4.73191C4.89686 4.7207 4.91602 4.69739 4.93833 4.66356C4.95225 4.64244 4.96742 4.61078 4.98039 4.58152C4.99551 4.54741 5.00816 4.52661 5.01835 4.51033C5.02077 4.50645 5.02174 4.50221 5.02109 4.50215C5.00618 4.50075 5.00418 4.53051 4.98999 4.54005C4.97015 4.55338 4.95677 4.56711 4.94794 4.58675C4.94459 4.5942 4.9392 4.60492 4.93576 4.60844C4.93233 4.61196 4.93099 4.60793 4.93365 4.6025C4.94681 4.57569 4.96612 4.56589 4.97565 4.55233C4.98921 4.54283 5.00271 4.53198 5.01562 4.51913C5.01902 4.51571 5.02304 4.51303 5.02719 4.51027" stroke="black" stroke-width="0.25" stroke-linecap="round"/>
</svg>
